<svg width="16" height="16" viewBox="0 0 16 16" fill="none" xmlns="http://www.w3.org/2000/svg">
<g clip-path="url(#clip0_3_12)">
<path d="M0.293 0.293005C0.480528 0.105534 0.734836 0.000218431 1 0.000218431C1.26516 0.000218431 1.51947 0.105534 1.707 0.293005L8 6.586L14.293 0.293005C14.3852 0.197495 14.4956 0.121312 14.6176 0.0689035C14.7396 0.0164945 14.8708 -0.0110918 15.0036 -0.0122456C15.1364 -0.0133994 15.2681 0.0119023 15.391 0.0621832C15.5139 0.112464 15.6255 0.186717 15.7194 0.28061C15.8133 0.374503 15.8875 0.486155 15.9378 0.609051C15.9881 0.731947 16.0134 0.863627 16.0123 0.996406C16.0111 1.12919 15.9835 1.26041 15.9311 1.38241C15.8787 1.50441 15.8025 1.61476 15.707 1.707L9.414 8L15.707 14.293C15.8892 14.4816 15.99 14.7342 15.9877 14.9964C15.9854 15.2586 15.8802 15.5094 15.6948 15.6948C15.5094 15.8802 15.2586 15.9854 14.9964 15.9877C14.7342 15.99 14.4816 15.8892 14.293 15.707L8 9.414L1.707 15.707C1.5184 15.8892 1.2658 15.99 1.0036 15.9877C0.741402 15.9854 0.49059 15.8802 0.305182 15.6948C0.119773 15.5094 0.0146045 15.2586 0.012326 14.9964C0.0100476 14.7342 0.110842 14.4816 0.293 14.293L6.586 8L0.293 1.707C0.105529 1.51948 0.000213623 1.26517 0.000213623 1C0.000213623 0.734841 0.105529 0.480533 0.293 0.293005Z" fill="white"/>
</g>
<defs>
<clipPath id="clip0_3_12">
<rect width="16" height="16" fill="white"/>
</clipPath>
</defs>
</svg>
