<svg width="699" height="319" viewBox="0 0 699 319" fill="none" xmlns="http://www.w3.org/2000/svg">
<path d="M152.478 259.8C152.478 267.8 151.011 275.4 148.078 282.6C145.411 289.8 141.545 296.067 136.478 301.4C131.678 306.733 125.811 311 118.878 314.2C111.945 317.4 104.345 319 96.0781 319H59.2781C51.2781 319 43.6781 317.533 36.4781 314.6C29.2781 311.4 22.8781 307.133 17.2781 301.8C11.9448 296.2 7.67813 289.8 4.47813 282.6C1.54479 275.4 0.0781256 267.8 0.0781256 259.8V59.8C0.0781256 51.8 1.54479 44.2 4.47813 37C7.67813 29.8 11.9448 23.5333 17.2781 18.2C22.8781 12.6 29.2781 8.33331 36.4781 5.39998C43.6781 2.19998 51.2781 0.599975 59.2781 0.599975H96.0781C104.345 0.599975 111.945 2.19998 118.878 5.39998C125.811 8.59999 131.678 12.8667 136.478 18.2C141.545 23.5333 145.411 29.8 148.078 37C151.011 44.2 152.478 51.8 152.478 59.8V155H70.4781V252.2C74.2115 252.2 77.5448 251.267 80.4781 249.4C83.4115 247.267 84.8781 244.333 84.8781 240.6V169H152.478V259.8ZM84.8781 71.8C84.8781 67.8 83.4115 64.8667 80.4781 63C77.5448 60.8667 74.2115 59.8 70.4781 59.8V127.4H84.8781V71.8ZM263.972 319V171H249.572V319H179.172V59.8C179.172 51.8 180.639 44.2 183.572 37C186.772 29.8 191.039 23.5333 196.372 18.2C201.972 12.6 208.372 8.33331 215.572 5.39998C222.772 2.19998 230.372 0.599975 238.372 0.599975H275.172C283.439 0.599975 291.172 2.19998 298.372 5.39998C305.572 8.33331 311.839 12.6 317.172 18.2C322.505 23.5333 326.639 29.8 329.572 37C332.772 44.2 334.372 51.8 334.372 59.8V319H263.972ZM263.972 71.8C263.972 67.8 262.505 64.8667 259.572 63C256.639 60.8667 253.305 59.8 249.572 59.8V159.4H263.972V71.8ZM451.066 319L437.066 211H429.066V319H358.266V0.599975H454.266C462.266 0.599975 469.866 2.19998 477.066 5.39998C484.266 8.33331 490.532 12.6 495.866 18.2C501.466 23.5333 505.732 29.8 508.666 37C511.866 44.2 513.466 51.8 513.466 59.8V125.4C513.466 133.4 511.866 141.133 508.666 148.6C505.732 155.8 501.599 162.067 496.266 167.4C490.932 172.733 484.666 177 477.466 180.2C470.266 183.4 462.532 185 454.266 185H439.466C439.466 187.933 440.399 190.333 442.266 192.2C444.132 193.8 447.066 194.6 451.066 194.6H503.866L526.266 319H451.066ZM443.066 71.8C443.066 68.0667 441.599 65.1333 438.666 63C435.732 60.8667 432.532 59.8 429.066 59.8V165.8C432.532 165.8 435.732 164.867 438.666 163C441.599 160.867 443.066 157.933 443.066 154.2V71.8ZM626.884 319L611.284 147V319H540.484V0.599975H612.084L628.084 134.6V0.599975H698.084V319H626.884Z" fill="white"/>
</svg>
