<svg width="153" height="30" viewBox="0 0 153 30" fill="none" xmlns="http://www.w3.org/2000/svg">
<path d="M40.6908 19.0087H31.4671C31.4671 24.0358 34.0564 27.2802 38.058 27.2802C40.6473 27.2802 42.9227 26.0135 44.0996 23.2427L44.335 23.3614C43.3542 27.5573 40.0196 29.9719 35.6271 29.9719C30.2131 29.9719 25.7422 26.2906 25.7422 19.8795C25.7422 13.4685 30.2538 9.70801 35.5878 9.70801C39.79 9.70801 42.417 11.6417 43.6274 14.6061C44.4847 16.7055 42.943 19.0102 40.6938 19.0102L40.6908 19.0087ZM38.8412 18.1774C38.8412 13.9024 38.3704 10.4601 35.5457 10.4601C33.231 10.4601 31.6618 13.508 31.5049 18.1774H38.8397H38.8412Z" fill="white"/>
<path d="M53.2346 0.0322266V15.5285C54.1878 11.922 56.6259 9.82111 59.8633 9.82111C63.7486 9.82111 65.8831 12.5949 65.8831 16.7175V25.3965C65.8831 28.012 66.0735 28.6468 67.8258 29.6379V29.717C65.8148 29.8431 63.025 30.5615 61.5895 28.7157C61.3715 28.4357 61.2189 28.1073 61.0765 27.7789C60.0362 25.3804 60.4692 22.7767 60.3834 20.214L60.3936 16.8787C60.4372 14.5873 59.5741 12.6741 57.2711 12.6741C54.968 12.6741 53.2331 14.8541 53.2331 18.7773L53.2782 25.6516C53.2782 28.2671 53.4685 28.9019 55.2209 29.8929V29.9721H45.8489V29.8929C47.6012 28.9019 47.7916 28.2686 47.7916 25.6516L47.7465 4.39229C47.7465 1.89559 47.2511 0.9837 45.4609 0.111394V0.0322266H53.2331H53.2346Z" fill="white"/>
<path d="M115.552 28.5012C115.488 28.4147 114.495 27.7667 114.276 27.5087C114.055 27.2492 113.945 26.5587 113.945 26.1262V15.8916C113.945 14.0209 113.196 12.5387 111.7 11.4436C110.245 10.3807 108.288 9.83824 105.834 9.80599C105.804 9.80599 105.667 9.80306 105.623 9.80599C103.809 9.79573 102.271 10.1007 101.019 10.7267C99.7183 11.3776 98.8886 12.181 98.5312 13.1383C98.1737 14.0957 98.2348 15.0882 98.7143 16.1042L98.7317 16.0954L101.898 14.3244C101.77 14.0048 101.687 13.6793 101.648 13.3509C101.584 12.8041 101.673 12.2895 101.918 11.8042C102.164 11.319 102.665 10.9217 103.423 10.6109C104.808 10.045 106.995 9.85144 108.012 11.1181C108.532 11.7661 108.792 12.5211 108.792 13.3846V13.6867C108.76 14.0033 108.675 14.2907 108.532 14.5502C108.39 14.8097 108.217 15.0398 108.012 15.2407C107.807 15.443 107.508 15.6438 107.114 15.8447C106.72 16.047 106.341 16.2273 105.979 16.3842C105.616 16.5425 105.121 16.7375 104.49 16.9677C103.859 17.2272 103.387 17.4207 103.072 17.5512C102.757 17.6817 102.284 17.8899 101.654 18.1772C101.023 18.4645 100.544 18.724 100.212 18.9542C99.881 19.1844 99.48 19.4937 99.0063 19.8822C98.5341 20.2707 98.1795 20.6592 97.9427 21.0477C97.7059 21.4363 97.4937 21.8966 97.3048 22.4302C97.1159 22.9639 97.0215 23.5313 97.0215 24.1367C97.0215 25.8066 97.5417 27.1891 98.5806 28.2828C99.6209 29.3764 100.943 29.9233 102.55 29.9233C103.779 29.9233 104.954 29.5773 106.071 28.8868C107.19 28.1963 108.111 27.4178 108.836 26.5543V29.9233L115.547 28.4983L115.552 28.5012ZM105.886 27.8752C104.862 28.0922 103.98 27.8253 103.239 27.0762C102.498 26.3285 102.129 25.119 102.129 23.4492C102.129 22.7293 102.239 22.0183 102.46 21.3116C102.681 20.6065 103.034 19.9233 103.524 19.2606C104.012 18.598 104.602 18.0511 105.296 17.6186C106.462 16.9281 107.289 16.4091 107.778 16.0646C108.266 15.7186 108.621 15.3594 108.842 14.9856V26.0837C107.897 27.063 106.911 27.6597 105.888 27.8752" fill="white"/>
<path d="M151.533 28.5175C150.553 29.5071 149.356 29.9997 147.936 29.9997C146.517 29.9997 145.319 29.5071 144.34 28.5175C143.361 27.5308 142.871 26.3199 142.871 24.889C142.871 23.4581 143.361 22.2486 144.34 21.2605C145.319 20.2738 146.518 19.7783 147.936 19.7783C149.354 19.7783 150.553 20.2738 151.533 21.2605C152.51 22.2486 153.002 23.4581 153.002 24.889C153.002 26.3199 152.51 27.5308 151.533 28.5175Z" fill="white"/>
<path d="M22.8807 20.9725C21.5047 25.4894 18.1293 28.8877 13.1397 28.8877H7.49612V5.34279C7.49612 2.51769 7.41911 1.23049 9.37197 0.116282V0.03125L0 0.0341821V0.119214C1.9514 1.23195 2.37569 2.51622 2.37569 5.34132V24.6919C2.37569 27.517 1.98773 28.7484 0.0363255 29.8627V30.0005H21.9653L23.305 20.9725H22.8807Z" fill="white"/>
<path d="M125.219 0.0322266V15.5285C126.172 11.922 128.61 9.82111 131.848 9.82111C135.733 9.82111 137.868 12.5949 137.868 16.7175V25.3965C137.868 28.012 138.058 28.6468 139.81 29.6379V29.717C137.799 29.8431 134.999 30.6744 133.574 28.7157C133.365 28.4284 133.203 28.1073 133.061 27.7789C132.021 25.3804 132.454 22.7767 132.368 20.214L132.378 16.8787C132.422 14.5873 131.558 12.6741 129.255 12.6741C126.952 12.6741 125.218 14.8541 125.218 18.7773L125.263 25.6516C125.263 28.2671 125.453 28.9019 127.205 29.8929V29.9721H117.833V29.8929C119.586 28.9019 119.776 28.2686 119.776 25.6516L119.731 4.39229C119.731 1.89559 119.235 0.9837 117.445 0.111394V0.0322266H125.218H125.219Z" fill="white"/>
<path d="M94.1248 20.9412C92.7488 25.4581 89.3735 28.8565 84.3838 28.8565H78.7403V5.31154C78.7403 2.48644 78.6633 1.19924 80.6161 0.0850315V0L71.2441 0.00293212V0.0894297C73.1955 1.20217 73.6198 2.48644 73.6198 5.31154V24.6621C73.6198 27.4872 73.2319 28.7187 71.2805 29.8329V29.9707H93.2094L94.5491 20.9427H94.1248V20.9412Z" fill="white"/>
</svg>
