<svg width="248" height="38" viewBox="0 0 248 38" fill="none" xmlns="http://www.w3.org/2000/svg">
<path d="M88.8057 29V6.92H93.7257V29H88.8057ZM102.096 29L95.6757 19.58H101.076L107.796 29H102.096ZM92.4057 21.98V18.11H97.8057C98.5257 18.11 99.1457 17.97 99.6657 17.69C100.206 17.39 100.616 16.98 100.896 16.46C101.196 15.92 101.346 15.3 101.346 14.6C101.346 13.9 101.196 13.29 100.896 12.77C100.616 12.23 100.206 11.82 99.6657 11.54C99.1457 11.24 98.5257 11.09 97.8057 11.09H92.4057V6.92H97.4157C99.2357 6.92 100.816 7.2 102.156 7.76C103.496 8.3 104.526 9.11 105.246 10.19C105.966 11.27 106.326 12.63 106.326 14.27V14.75C106.326 16.37 105.956 17.72 105.216 18.8C104.496 19.86 103.466 20.66 102.126 21.2C100.806 21.72 99.2357 21.98 97.4157 21.98H92.4057ZM117.687 29.57C116.287 29.57 115.047 29.33 113.967 28.85C112.907 28.37 112.017 27.73 111.297 26.93C110.597 26.11 110.057 25.2 109.677 24.2C109.317 23.18 109.137 22.14 109.137 21.08V20.48C109.137 19.38 109.317 18.33 109.677 17.33C110.057 16.31 110.597 15.4 111.297 14.6C111.997 13.8 112.867 13.17 113.907 12.71C114.967 12.23 116.167 11.99 117.507 11.99C119.267 11.99 120.747 12.39 121.947 13.19C123.167 13.97 124.097 15 124.737 16.28C125.377 17.54 125.697 18.92 125.697 20.42V22.04H111.147V19.31H122.787L121.227 20.57C121.227 19.59 121.087 18.75 120.807 18.05C120.527 17.35 120.107 16.82 119.547 16.46C119.007 16.08 118.327 15.89 117.507 15.89C116.667 15.89 115.957 16.08 115.377 16.46C114.797 16.84 114.357 17.4 114.057 18.14C113.757 18.86 113.607 19.75 113.607 20.81C113.607 21.79 113.747 22.65 114.027 23.39C114.307 24.11 114.747 24.67 115.347 25.07C115.947 25.47 116.727 25.67 117.687 25.67C118.567 25.67 119.287 25.5 119.847 25.16C120.407 24.82 120.787 24.4 120.987 23.9H125.397C125.157 25 124.687 25.98 123.987 26.84C123.287 27.7 122.407 28.37 121.347 28.85C120.287 29.33 119.067 29.57 117.687 29.57ZM138.808 29V24.14H137.998V18.86C137.998 18.02 137.798 17.39 137.398 16.97C136.998 16.55 136.358 16.34 135.478 16.34C135.038 16.34 134.458 16.35 133.738 16.37C133.018 16.39 132.278 16.42 131.518 16.46C130.758 16.5 130.068 16.54 129.448 16.58V12.53C129.908 12.49 130.448 12.45 131.068 12.41C131.688 12.37 132.328 12.34 132.988 12.32C133.648 12.3 134.268 12.29 134.848 12.29C136.528 12.29 137.938 12.53 139.078 13.01C140.238 13.49 141.118 14.22 141.718 15.2C142.318 16.16 142.618 17.4 142.618 18.92V29H138.808ZM133.558 29.42C132.378 29.42 131.338 29.21 130.438 28.79C129.558 28.37 128.868 27.77 128.368 26.99C127.868 26.19 127.618 25.24 127.618 24.14C127.618 22.94 127.928 21.96 128.548 21.2C129.168 20.42 130.038 19.85 131.158 19.49C132.278 19.11 133.568 18.92 135.028 18.92H138.538V21.59H134.998C134.158 21.59 133.508 21.8 133.048 22.22C132.608 22.62 132.388 23.17 132.388 23.87C132.388 24.53 132.608 25.07 133.048 25.49C133.508 25.89 134.158 26.09 134.998 26.09C135.538 26.09 136.018 26 136.438 25.82C136.878 25.62 137.238 25.29 137.518 24.83C137.798 24.37 137.958 23.73 137.998 22.91L139.138 24.11C139.038 25.25 138.758 26.21 138.298 26.99C137.858 27.77 137.238 28.37 136.438 28.79C135.658 29.21 134.698 29.42 133.558 29.42ZM146.9 29V7.1H151.73V29H146.9ZM144.95 10.64V7.1H151.73V10.64H144.95ZM170.342 29.57C168.362 29.57 166.692 29.26 165.332 28.64C163.972 28 162.942 27.14 162.242 26.06C161.542 24.96 161.192 23.7 161.192 22.28H165.962C165.962 22.84 166.112 23.36 166.412 23.84C166.732 24.32 167.212 24.71 167.852 25.01C168.492 25.29 169.322 25.43 170.342 25.43C171.262 25.43 172.032 25.31 172.652 25.07C173.272 24.83 173.742 24.5 174.062 24.08C174.382 23.64 174.542 23.14 174.542 22.58C174.542 21.88 174.242 21.33 173.642 20.93C173.042 20.51 172.072 20.24 170.732 20.12L169.082 19.97C166.902 19.79 165.162 19.11 163.862 17.93C162.562 16.75 161.912 15.19 161.912 13.25C161.912 11.85 162.242 10.64 162.902 9.62C163.582 8.6 164.522 7.82 165.722 7.28C166.922 6.72 168.342 6.44 169.982 6.44C171.702 6.44 173.172 6.74 174.392 7.34C175.632 7.92 176.582 8.75 177.242 9.83C177.902 10.89 178.232 12.14 178.232 13.58H173.432C173.432 13.04 173.302 12.55 173.042 12.11C172.782 11.65 172.392 11.28 171.872 11C171.372 10.72 170.742 10.58 169.982 10.58C169.262 10.58 168.652 10.7 168.152 10.94C167.672 11.18 167.312 11.51 167.072 11.93C166.832 12.33 166.712 12.77 166.712 13.25C166.712 13.87 166.932 14.41 167.372 14.87C167.812 15.33 168.532 15.6 169.532 15.68L171.212 15.83C172.812 15.97 174.222 16.32 175.442 16.88C176.662 17.42 177.612 18.17 178.292 19.13C178.992 20.07 179.342 21.22 179.342 22.58C179.342 23.98 178.972 25.21 178.232 26.27C177.512 27.31 176.482 28.12 175.142 28.7C173.802 29.28 172.202 29.57 170.342 29.57ZM189.931 29.21C188.271 29.21 186.931 29.01 185.911 28.61C184.891 28.19 184.141 27.5 183.661 26.54C183.201 25.56 182.971 24.24 182.971 22.58V8.12H187.441V22.76C187.441 23.54 187.641 24.14 188.041 24.56C188.461 24.96 189.051 25.16 189.811 25.16H192.241V29.21H189.931ZM180.481 16.07V12.56H192.241V16.07H180.481ZM195.289 35.51V31.43H198.709C199.229 31.43 199.669 31.36 200.029 31.22C200.389 31.1 200.679 30.89 200.899 30.59C201.119 30.29 201.299 29.88 201.439 29.36L205.489 12.56H210.049L205.459 30.32C205.139 31.6 204.689 32.62 204.109 33.38C203.549 34.14 202.789 34.68 201.829 35C200.889 35.34 199.689 35.51 198.229 35.51H195.289ZM200.449 28.64V24.89H203.929V28.64H200.449ZM198.469 28.64L193.429 12.56H198.259L203.029 28.64H198.469ZM212.789 29V7.1H217.619V29H212.789ZM210.839 10.64V7.1H217.619V10.64H210.839ZM229.572 29.57C228.172 29.57 226.932 29.33 225.852 28.85C224.792 28.37 223.902 27.73 223.182 26.93C222.482 26.11 221.942 25.2 221.562 24.2C221.202 23.18 221.022 22.14 221.022 21.08V20.48C221.022 19.38 221.202 18.33 221.562 17.33C221.942 16.31 222.482 15.4 223.182 14.6C223.882 13.8 224.752 13.17 225.792 12.71C226.852 12.23 228.052 11.99 229.392 11.99C231.152 11.99 232.632 12.39 233.832 13.19C235.052 13.97 235.982 15 236.622 16.28C237.262 17.54 237.582 18.92 237.582 20.42V22.04H223.032V19.31H234.672L233.112 20.57C233.112 19.59 232.972 18.75 232.692 18.05C232.412 17.35 231.992 16.82 231.432 16.46C230.892 16.08 230.212 15.89 229.392 15.89C228.552 15.89 227.842 16.08 227.262 16.46C226.682 16.84 226.242 17.4 225.942 18.14C225.642 18.86 225.492 19.75 225.492 20.81C225.492 21.79 225.632 22.65 225.912 23.39C226.192 24.11 226.632 24.67 227.232 25.07C227.832 25.47 228.612 25.67 229.572 25.67C230.452 25.67 231.172 25.5 231.732 25.16C232.292 24.82 232.672 24.4 232.872 23.9H237.282C237.042 25 236.572 25.98 235.872 26.84C235.172 27.7 234.292 28.37 233.232 28.85C232.172 29.33 230.952 29.57 229.572 29.57ZM239.719 29V23.63H244.999V29H239.719Z" fill="#0F0F0F"/>
<path d="M11.1039 31.1407C13.0317 33.5823 15.1306 35.2607 17.3988 36.1759C19.6671 37.0911 21.66 37.2446 23.3806 36.6335C25.1011 36.0224 26.4312 34.8518 27.3694 33.1232L22.1306 29.9952C21.713 30.9606 21.1531 31.7888 20.4495 32.4752C19.7458 33.1616 18.9242 33.6192 17.9875 33.848C17.0478 34.0768 15.9658 33.8864 14.7417 33.2752C13.516 32.6656 12.3039 31.622 11.1054 30.1473V5.58557C11.1054 4.82388 11.2749 4.21275 11.6139 3.75515C11.9513 3.29754 13.5795 2.15204 13.6839 2H0C0.102898 2.15204 1.73262 3.29754 2.07158 3.75515C2.40902 4.21423 2.58002 4.82388 2.58002 5.58557V30.2255C2.58002 30.9872 2.41054 31.5983 2.07158 32.0559C1.73262 32.5136 0.102898 33.6576 0 33.8111L11.1039 36.3279V31.1407Z" fill="#0F0F0F"/>
<path d="M35.2742 35.7562C34.56 36.4544 33.6854 36.8013 32.6503 36.8013C31.6153 36.8013 30.7407 36.453 30.0264 35.7562C29.3122 35.0609 28.9551 34.2063 28.9551 33.1966C28.9551 32.1869 29.3122 31.3337 30.0264 30.6369C30.7407 29.9402 31.6153 29.5918 32.6503 29.5918C33.6854 29.5918 34.5585 29.9416 35.2742 30.6369C35.9885 31.3337 36.3456 32.1869 36.3456 33.1966C36.3456 34.2063 35.9869 35.0595 35.2742 35.7562Z" fill="#0F0F0F"/>
</svg>
