<svg width="695" height="319" viewBox="0 0 695 319" fill="none" xmlns="http://www.w3.org/2000/svg">
<path d="M155.341 259.8C155.341 267.8 153.741 275.4 150.541 282.6C147.607 289.8 143.474 296.2 138.141 301.8C132.807 307.133 126.541 311.4 119.341 314.6C112.141 317.533 104.407 319 96.1406 319H59.3406C51.3406 319 43.7406 317.533 36.5406 314.6C29.3406 311.4 22.9406 307.133 17.3406 301.8C12.0073 296.2 7.74063 289.8 4.54063 282.6C1.60729 275.4 0.140626 267.8 0.140626 259.8V193.8H70.5406V247.4C74.274 247.4 77.6073 246.6 80.5406 245C83.474 243.133 84.9406 239.933 84.9406 235.4V179.8H0.140626V59.8C0.140626 51.8 1.60729 44.2 4.54063 37C7.74063 29.8 12.0073 23.5333 17.3406 18.2C22.9406 12.6 29.3406 8.33331 36.5406 5.39998C43.7406 2.19998 51.3406 0.599975 59.3406 0.599975H96.1406C104.407 0.599975 112.141 2.19998 119.341 5.39998C126.541 8.33331 132.807 12.6 138.141 18.2C143.474 23.5333 147.607 29.8 150.541 37C153.741 44.2 155.341 51.8 155.341 59.8V144.6H84.9406V78.6C84.9406 72.7333 83.2073 69.1333 79.7406 67.8C76.274 66.2 73.6073 65.4 71.7406 65.4H70.5406V159H155.341V259.8ZM266.034 319V147H250.034V319H179.234V0.599975H250.034V135.4H266.034V0.599975H336.834V319H266.034ZM515.872 259.8C515.872 267.8 514.272 275.4 511.072 282.6C508.139 289.8 504.005 296.2 498.672 301.8C493.339 307.133 487.072 311.4 479.872 314.6C472.672 317.533 464.939 319 456.672 319H419.872C411.872 319 404.272 317.533 397.072 314.6C389.872 311.4 383.472 307.133 377.872 301.8C372.539 296.2 368.272 289.8 365.072 282.6C362.139 275.4 360.672 267.8 360.672 259.8V59.8C360.672 51.8 362.139 44.2 365.072 37C368.272 29.8 372.539 23.5333 377.872 18.2C383.472 12.6 389.872 8.33331 397.072 5.39998C404.272 2.19998 411.872 0.599975 419.872 0.599975H456.672C464.939 0.599975 472.672 2.19998 479.872 5.39998C487.072 8.33331 493.339 12.6 498.672 18.2C504.005 23.5333 508.139 29.8 511.072 37C514.272 44.2 515.872 51.8 515.872 59.8V259.8ZM445.472 71.8C445.472 67.8 444.005 64.8667 441.072 63C438.139 60.8667 434.805 59.8 431.072 59.8V252.2C434.805 252.2 438.139 251.267 441.072 249.4C444.005 247.267 445.472 244.333 445.472 240.6V71.8ZM694.966 173.4C694.966 181.4 693.366 189 690.166 196.2C687.232 203.4 683.099 209.8 677.766 215.4C672.432 220.733 666.166 225 658.966 228.2C651.766 231.133 644.032 232.6 635.766 232.6H610.566V319H539.766V0.599975H635.766C643.766 0.599975 651.366 2.19998 658.566 5.39998C665.766 8.33331 672.032 12.6 677.366 18.2C682.966 23.5333 687.232 29.8 690.166 37C693.366 44.2 694.966 51.8 694.966 59.8V173.4ZM624.566 71.8C624.566 67.8 623.099 64.8667 620.166 63C617.232 60.8667 614.032 59.8 610.566 59.8V165.8C614.032 165.8 617.232 164.867 620.166 163C623.099 160.867 624.566 157.933 624.566 154.2V71.8Z" fill="white"/>
</svg>
