<svg width="845" height="338" viewBox="0 0 845 338" fill="none" xmlns="http://www.w3.org/2000/svg">
<path d="M163.255 269.8C163.255 277.8 161.655 285.4 158.455 292.6C155.521 299.8 151.388 306.2 146.055 311.8C140.721 317.133 134.455 321.4 127.255 324.6C120.055 327.533 112.321 329 104.055 329H67.2547C59.2547 329 51.6547 327.533 44.4547 324.6C37.2547 321.4 30.8547 317.133 25.2547 311.8C19.9214 306.2 15.6547 299.8 12.4547 292.6C9.52135 285.4 8.05469 277.8 8.05469 269.8V203.8H78.4547V257.4C82.188 257.4 85.5214 256.6 88.4547 255C91.388 253.133 92.8547 249.933 92.8547 245.4V189.8H8.05469V69.8C8.05469 61.8 9.52135 54.2 12.4547 47C15.6547 39.8 19.9214 33.5333 25.2547 28.2C30.8547 22.6 37.2547 18.3333 44.4547 15.4C51.6547 12.2 59.2547 10.6 67.2547 10.6H104.055C112.321 10.6 120.055 12.2 127.255 15.4C134.455 18.3333 140.721 22.6 146.055 28.2C151.388 33.5333 155.521 39.8 158.455 47C161.655 54.2 163.255 61.8 163.255 69.8V154.6H92.8547V88.6C92.8547 82.7333 91.1214 79.1333 87.6547 77.8C84.188 76.2 81.5214 75.4 79.6547 75.4H78.4547V169H163.255V269.8ZM257.548 100.2V262.2C261.282 262.2 264.615 261.267 267.548 259.4C270.482 257.267 271.948 254.333 271.948 250.6V123.4H342.348V269.8C342.348 277.8 340.748 285.4 337.548 292.6C334.615 299.8 330.482 306.2 325.148 311.8C319.815 317.133 313.548 321.4 306.348 324.6C299.148 327.533 291.415 329 283.148 329H246.348C238.348 329 230.748 327.533 223.548 324.6C216.615 321.4 210.348 317.133 204.748 311.8C199.415 306.2 195.148 299.8 191.948 292.6C188.748 285.4 187.148 277.8 187.148 269.8V10.6H257.548V89H342.748V100.2H257.548ZM501.042 271.4C498.642 282.067 494.909 291.667 489.842 300.2C485.309 307.4 479.042 314.067 471.042 320.2C463.309 326.067 453.042 329 440.242 329H362.642V255.4H418.642V255C423.976 255 427.709 253.933 429.842 251.8C432.242 249.667 433.842 245.933 434.642 240.6H392.242L362.642 10.6H433.042L446.642 168.6H450.642L464.242 10.6H534.642L501.042 271.4ZM550.023 329V10.6H620.823V262.2H658.023V329H550.023ZM834.252 269.8C834.252 277.8 832.785 285.4 829.852 292.6C827.185 299.8 823.318 306.067 818.252 311.4C813.452 316.733 807.585 321 800.652 324.2C793.718 327.4 786.118 329 777.852 329H741.052C733.052 329 725.452 327.533 718.252 324.6C711.052 321.4 704.652 317.133 699.052 311.8C693.718 306.2 689.452 299.8 686.252 292.6C683.318 285.4 681.852 277.8 681.852 269.8V69.8C681.852 61.8 683.318 54.2 686.252 47C689.452 39.8 693.718 33.5333 699.052 28.2C704.652 22.6 711.052 18.3333 718.252 15.4C725.452 12.2 733.052 10.6 741.052 10.6H777.852C786.118 10.6 793.718 12.2 800.652 15.4C807.585 18.6 813.452 22.8667 818.252 28.2C823.318 33.5333 827.185 39.8 829.852 47C832.785 54.2 834.252 61.8 834.252 69.8V165H752.252V262.2C755.985 262.2 759.318 261.267 762.252 259.4C765.185 257.267 766.652 254.333 766.652 250.6V179H834.252V269.8ZM766.652 81.8C766.652 77.8 765.185 74.8667 762.252 73C759.318 70.8667 755.985 69.8 752.252 69.8V137.4H766.652V81.8Z" fill="white"/>
</svg>
